<svg width="14" height="15" viewBox="0 0 14 15" fill="none" xmlns="http://www.w3.org/2000/svg">
<path d="M8 0C7.51389 0 7.02106 0.160323 6.63672 0.501953C6.25238 0.843593 6 1.375 6 2V6H2.5C2.22387 6.00003 2.00003 6.22387 2 6.5V10.5C2 10.8333 1.81792 11.2251 1.52148 11.5215C1.22505 11.8179 0.833333 12 0.5 12C0.223869 12 2.76e-05 12.2239 0 12.5V14.5C2.76e-05 14.7761 0.223869 15 0.5 15H3.5C3.6326 15 3.75976 14.9473 3.85352 14.8535L5 13.707V14.5C5.00003 14.7761 5.22387 15 5.5 15H10.5C12.2778 15 14 13.5357 14 11.5V6.5C14 6.22387 13.7761 6.00003 13.5 6H10V2C10 1.375 9.74762 0.843593 9.36328 0.501953C8.97894 0.160323 8.48611 0 8 0ZM8 1C8.26389 1 8.52106 1.0897 8.69922 1.24805C8.87738 1.40641 9 1.625 9 2V6H8.5C7.82384 5.99 7.82384 7.00956 8.5 7H13V8H3V7H6.5C6.77613 6.99997 6.99997 6.77613 7 6.5V2C7 1.625 7.12262 1.40641 7.30078 1.24805C7.47894 1.08968 7.73611 1 8 1ZM3 9H13V11.5C13 12.9643 11.7222 14 10.5 14H10V12.5C10.0044 12.2177 9.77445 11.9878 9.49219 11.9922C9.21604 11.9965 8.99568 12.2239 9 12.5V14H6V12.5C5.99983 12.0547 5.46148 11.8317 5.14648 12.1465L3.29297 14H1V12.7773C1.44418 12.6575 1.9061 12.5509 2.22852 12.2285C2.68208 11.7749 3 11.1667 3 10.5V9Z" fill="white"/>
</svg>
